<?xml version="1.0" encoding="iso-8859-1"?>
<!-- Generator: Adobe Illustrator 19.0.0, SVG Export Plug-In . SVG Version: 6.00 Build 0)  -->
<svg version="1.1" id="Capa_1" xmlns="http://www.w3.org/2000/svg" xmlns:xlink="http://www.w3.org/1999/xlink" x="0px" y="0px"
	 viewBox="0 0 432 432" style="enable-background:new 0 0 432 432;" xml:space="preserve">
<path style="fill:#FFB398;" d="M248.16,112v0.32c0,17.6,14.24,31.12,31.84,31.12h0.32v-0.4c8.64,0.08,15.68,7.2,15.68,15.84v0.32
	c0,8.8-7.12,15.84-15.84,15.84h-1.36C271.68,203.2,246.32,224,216,224s-55.68-20.8-62.8-48.96h-1.36c-8.72,0-15.84-7.04-15.84-15.84
	v-0.32c0-8.64,7.04-15.76,15.68-15.84v0.4H152c17.6,0,31.84-13.52,31.84-31.12V112H248.16z"/>
<g>
	<path style="fill:#884D00;" d="M248.16,112v0.32c0,17.6,14.24,31.12,31.84,31.12h0.32L280,112.32L248.16,112z"/>
	<path style="fill:#884D00;" d="M152,112.32v31.12c17.6,0,31.84-13.52,31.84-31.12V112L152,112.32z"/>
</g>
<path style="fill:#EBE5DD;" d="M376,432h-64V256h32c17.673,0,32,14.327,32,32V432z"/>
<path style="fill:#F40E34;" d="M288,76.16v36.161H144V76.16c5.52,2.88,11.68,4.48,18.32,4.48c10.32,0,19.68-4.08,26.8-10.48
	c7.2,6.4,16.48,10.48,26.88,10.48s19.68-4.08,26.88-10.48c7.12,6.4,16.48,10.48,26.8,10.48C276.32,80.64,282.48,79.04,288,76.16z"/>
<path style="fill:#EBE5DD;" d="M310,40.32c0,15.6-8.88,29.2-22,35.84c-5.52,2.88-11.68,4.48-18.32,4.48
	c-10.32,0-19.68-4.08-26.8-10.48c-7.2,6.4-16.48,10.48-26.88,10.48s-19.68-4.08-26.88-10.48c-7.12,6.4-16.48,10.48-26.8,10.48
	c-6.64,0-12.8-1.6-18.32-4.48c-13.12-6.64-22-20.24-22-35.84C122,18.08,140,0,162.32,0c10.32,0,19.68,4.08,26.8,10.48
	C196.32,4.08,205.6,0,216,0s19.68,4.08,26.88,10.48C250,4.08,259.36,0,269.68,0C292,0,310,18.08,310,40.32z"/>
<g>
	<path style="fill:#F40E34;" d="M264,216h-16.32c-17.496,0-31.68,14.184-31.68,31.68V256h48V216z"/>
	<path style="fill:#F40E34;" d="M168,216h16.32c17.496,0,31.68,14.184,31.68,31.68V256h-48V216z"/>
</g>
<rect x="120" y="256" style="fill:#EBE5DD;" width="192" height="176"/>
<path style="fill:#F40E34;" d="M120,345.996v-19.993L208,260v-4h16v8c0,2.52-1.188,4.891-3.203,6.398L120,345.996z"/>
<path style="fill:#EBE5DD;" d="M56,432h64V256H88c-17.673,0-32,14.327-32,32V432z"/>
<g>
	<rect x="160" y="328" style="fill:#F40E34;" width="16" height="16"/>
	<rect x="160" y="360" style="fill:#F40E34;" width="16" height="16"/>
	<rect x="160" y="392" style="fill:#F40E34;" width="16" height="16"/>
</g>
<g>
	<rect x="104" y="312" style="fill:#FFFFFF;" width="16" height="120"/>
	<rect x="312" y="312" style="fill:#FFFFFF;" width="16" height="120"/>
</g>
<g>
</g>
<g>
</g>
<g>
</g>
<g>
</g>
<g>
</g>
<g>
</g>
<g>
</g>
<g>
</g>
<g>
</g>
<g>
</g>
<g>
</g>
<g>
</g>
<g>
</g>
<g>
</g>
<g>
</g>
</svg>
